<?xml version="1.0" standalone="no"?>
<!DOCTYPE svg PUBLIC "-//W3C//DTD SVG 20010904//EN"
 "http://www.w3.org/TR/2001/REC-SVG-20010904/DTD/svg10.dtd">
<svg version="1.0" xmlns="http://www.w3.org/2000/svg"
 width="764.000000pt" height="1288.000000pt" viewBox="0 0 764.000000 1288.000000"
 preserveAspectRatio="xMidYMid meet">
<metadata>
Created by potrace 1.15, written by Peter Selinger 2001-2017
</metadata>
<g transform="translate(0.000000,1288.000000) scale(0.100000,-0.100000)"
fill="#000000" stroke="none">
<path d="M3570 12583 c-25 -2 -101 -10 -170 -19 -739 -94 -1407 -420 -1931
-943 -576 -575 -912 -1295 -980 -2100 -14 -175 -6 -549 16 -706 71 -512 246
-985 513 -1388 l52 -78 0 -807 0 -807 -58 -30 c-84 -44 -212 -171 -255 -253
-69 -133 -90 -258 -63 -390 19 -94 43 -154 87 -220 46 -68 141 -157 220 -203
l69 -41 0 -789 0 -788 -61 -32 c-82 -44 -195 -152 -242 -230 -58 -98 -81 -185
-81 -304 0 -176 56 -307 183 -428 89 -85 155 -125 266 -162 310 -104 677 43
813 326 51 106 66 183 59 302 -7 115 -34 196 -99 293 -56 84 -116 140 -215
200 l-68 41 -3 786 -2 786 58 31 c245 131 375 398 321 662 -31 153 -147 309
-295 400 l-84 51 0 482 c0 265 3 484 6 488 3 3 54 -33 112 -79 465 -370 1026
-614 1587 -690 66 -9 126 -18 133 -20 9 -3 12 -97 12 -431 l-1 -428 -364 -314
-365 -315 0 -1587 0 -1586 24 -95 c93 -365 395 -661 781 -765 91 -24 116 -27
280 -27 165 0 188 3 280 28 205 56 375 157 522 309 127 132 195 247 257 437
21 65 21 67 24 1675 l2 1611 -365 314 -365 315 0 430 0 430 128 18 c583 81
1154 330 1615 705 l77 63 0 -488 0 -488 -65 -34 c-36 -18 -91 -59 -124 -90
-203 -195 -252 -464 -131 -709 53 -105 155 -212 253 -262 l67 -35 0 -790 -1
-790 -62 -35 c-94 -52 -214 -178 -259 -270 -20 -41 -42 -100 -49 -130 -16 -72
-17 -201 0 -270 51 -214 243 -404 471 -466 88 -24 262 -24 350 -1 306 82 504
338 487 633 -12 212 -126 392 -319 504 l-63 36 -3 786 -2 787 62 33 c74 39
202 161 243 232 105 181 111 391 18 578 -47 92 -161 210 -255 262 l-68 38 0
783 0 784 74 113 c651 1000 722 2260 187 3327 -400 797 -1107 1406 -1951 1679
-248 80 -477 127 -745 152 -100 9 -435 11 -545 3z m180 -452 l0 -310 -42 -5
c-24 -2 -98 -10 -164 -16 -287 -26 -568 -107 -849 -245 -540 -265 -973 -712
-1215 -1255 -215 -480 -277 -1017 -179 -1540 100 -532 387 -1046 786 -1406
447 -403 966 -624 1571 -669 l92 -7 0 -309 0 -309 -60 0 c-103 0 -348 29 -500
60 -500 100 -967 320 -1375 646 -408 326 -768 812 -955 1290 -17 43 -37 93
-45 109 -22 49 -81 252 -109 375 -61 277 -81 485 -73 794 12 505 115 908 349
1369 435 855 1258 1482 2193 1671 160 32 381 60 523 64 l52 2 0 -309z m490
283 c1121 -145 2103 -896 2530 -1936 168 -408 241 -785 241 -1238 0 -764 -258
-1470 -751 -2053 -103 -122 -320 -332 -450 -436 -514 -409 -1138 -648 -1792
-687 l-118 -7 0 312 c0 171 2 311 4 311 1 0 61 5 131 10 623 51 1199 324 1635
776 194 202 329 393 455 649 194 393 277 777 262 1219 -7 212 -24 336 -73 536
-112 455 -340 857 -679 1195 -361 361 -795 597 -1287 699 -101 21 -173 31
-395 52 l-53 5 0 311 0 311 113 -7 c61 -4 164 -14 227 -22z m-187 -759 c101
-7 212 -25 345 -56 l92 -22 51 -80 c120 -186 233 -472 279 -702 12 -60 24
-115 25 -121 3 -8 17 -9 50 -3 245 46 616 37 843 -19 l67 -17 52 -79 c87 -133
243 -455 243 -502 0 -9 -18 -2 -52 20 -138 88 -311 158 -489 198 -139 31 -443
33 -585 5 -50 -11 -96 -22 -102 -26 -6 -3 -18 -56 -27 -116 -20 -138 -65 -310
-111 -426 -20 -49 -38 -89 -39 -89 -2 0 -15 24 -28 54 -111 242 -368 449 -629
507 -32 6 -58 16 -58 21 0 4 44 43 98 86 99 78 187 136 315 207 l69 37 -6 47
c-24 170 -76 342 -148 485 -69 137 -155 254 -285 385 l-123 124 0 49 0 49 33
-5 c17 -3 72 -8 120 -11z m-303 -49 c0 -52 -2 -55 -46 -91 -61 -50 -178 -185
-239 -276 -108 -160 -195 -373 -229 -559 -29 -161 -33 -148 59 -198 102 -57
220 -137 312 -215 71 -59 81 -77 43 -77 -33 0 -182 -51 -250 -85 -146 -74
-283 -201 -371 -345 -30 -49 -57 -89 -61 -90 -9 0 -65 157 -94 265 -13 50 -31
140 -40 200 -9 61 -19 113 -22 116 -15 15 -195 49 -305 59 -306 27 -636 -54
-914 -225 -24 -14 -43 -22 -43 -18 0 16 71 185 111 265 73 145 202 345 228
352 56 17 248 29 446 29 192 1 251 -3 358 -21 70 -12 129 -22 132 -22 2 0 9
26 15 58 55 289 168 586 299 789 34 53 46 64 83 74 138 37 334 66 451 68 l77
1 0 -54z m-802 -113 c-2 -5 -18 -36 -36 -71 -71 -137 -174 -423 -196 -545 -5
-29 -11 -37 -22 -33 -43 17 -340 29 -497 20 -120 -6 -167 -6 -167 2 0 15 175
183 273 263 160 130 360 251 557 338 77 33 94 38 88 26z m1909 -58 c212 -101
393 -221 577 -383 98 -87 224 -218 215 -226 -2 -2 -49 3 -104 11 -86 11 -317
16 -529 9 l-48 -1 -35 125 c-37 136 -103 311 -164 432 -40 80 -43 88 -33 88 3
0 58 -25 121 -55z m-880 -144 c152 -179 255 -382 307 -609 l14 -63 -26 -16
c-167 -103 -287 -191 -379 -277 l-63 -58 -62 57 c-88 82 -147 127 -275 213
-72 48 -113 81 -113 92 0 34 49 206 80 280 70 168 151 292 283 427 l90 92 40
-31 c22 -18 69 -66 104 -107z m-1377 -1143 c36 -5 68 -13 72 -17 4 -3 16 -53
28 -111 24 -121 77 -297 119 -396 16 -38 27 -72 25 -75 -2 -4 -28 -20 -57 -37
-78 -44 -205 -138 -306 -225 l-90 -78 -43 22 c-83 42 -220 143 -297 218 -120
118 -224 268 -290 418 -53 121 -55 114 41 161 257 124 527 165 798 120z m2884
-13 c47 -8 128 -28 179 -45 118 -38 281 -119 285 -143 5 -27 -90 -216 -159
-318 -34 -50 -102 -131 -151 -180 -86 -85 -255 -209 -326 -238 -33 -14 -34
-13 -80 31 -77 74 -171 147 -279 219 -56 37 -107 69 -114 71 -9 3 -2 30 23 94
62 152 127 387 128 459 1 34 15 46 66 54 85 15 335 12 428 -4z m-1736 -266
l-3 -182 -40 -12 c-152 -45 -267 -177 -296 -339 -35 -201 101 -413 299 -465
l42 -12 0 -179 0 -180 -31 0 c-81 0 -234 58 -335 128 -197 135 -322 352 -341
591 -20 257 107 532 316 685 98 72 277 144 364 145 l27 1 -2 -181z m280 161
c344 -95 573 -397 574 -755 0 -356 -230 -660 -574 -755 -40 -11 -85 -20 -101
-20 l-27 0 2 181 3 180 53 18 c110 38 202 123 254 237 32 71 32 235 0 314 -49
122 -158 215 -299 256 -10 2 -13 48 -13 184 l0 180 28 0 c15 0 60 -9 100 -20z
m-2454 -100 c91 -277 277 -533 519 -714 81 -61 229 -148 294 -172 l43 -17 98
94 c99 96 228 198 318 249 l49 29 -4 -90 c-6 -165 36 -346 114 -485 42 -76
136 -196 189 -242 21 -18 36 -36 33 -38 -3 -3 -54 -10 -114 -16 -119 -10 -267
-4 -415 18 -54 8 -104 14 -111 14 -16 0 -103 -164 -141 -265 -68 -182 -104
-411 -92 -594 6 -106 48 -337 63 -352 10 -10 176 5 276 26 242 50 494 177 678
342 79 71 209 212 209 227 0 5 -24 66 -54 135 -48 113 -121 339 -113 348 2 1
30 -8 63 -21 56 -23 156 -48 237 -61 l37 -6 0 -408 0 -408 -97 -94 c-196 -190
-372 -321 -551 -411 l-94 -47 -56 20 c-101 37 -334 156 -442 227 -148 97 -287
211 -416 343 -157 162 -147 139 -135 317 19 263 75 484 180 707 28 59 50 109
49 110 -2 1 -39 21 -83 44 -212 113 -459 306 -609 478 -85 98 -86 98 -86 153
0 77 27 285 51 394 28 127 71 268 79 259 3 -4 19 -46 34 -93z m4595 -100 c39
-160 60 -302 68 -463 l6 -128 -109 -107 c-160 -158 -331 -283 -539 -393 -55
-29 -102 -54 -104 -56 -2 -1 22 -57 53 -124 108 -228 182 -448 212 -632 l17
-106 -59 -78 c-73 -95 -262 -288 -367 -372 -166 -134 -419 -284 -607 -360
l-55 -23 -94 40 c-198 86 -399 217 -592 388 l-99 88 2 420 3 421 50 6 c66 9
163 35 220 59 26 11 49 20 51 20 21 0 -50 -235 -116 -384 -58 -130 -64 -109
72 -251 251 -263 571 -419 935 -456 67 -6 128 -9 136 -6 9 3 22 45 36 109 71
338 33 657 -114 963 -78 160 -62 149 -180 129 -111 -19 -390 -24 -518 -11
l-79 9 80 81 c189 194 274 401 275 668 l1 126 50 -30 c123 -72 326 -233 415
-331 14 -14 30 -26 36 -26 22 0 176 80 257 134 266 175 466 426 579 729 18 48
36 84 40 80 4 -5 21 -64 38 -133z m-2243 -319 c107 -49 170 -149 162 -256 -7
-76 -34 -131 -92 -182 -127 -112 -330 -74 -408 76 -31 60 -38 142 -16 213 15
51 77 120 130 147 57 28 165 29 224 2z m-2406 -535 c109 -104 261 -221 387
-297 46 -28 83 -54 81 -57 -75 -163 -139 -384 -166 -577 l-18 -130 -53 85
c-106 171 -198 385 -256 597 -43 154 -96 473 -79 473 4 0 50 -42 104 -94z
m4704 -23 c-15 -124 -67 -351 -108 -470 -42 -122 -120 -307 -150 -356 -7 -12
-25 -44 -41 -71 l-27 -49 -28 109 c-34 130 -75 248 -137 392 -39 92 -43 107
-29 116 8 6 63 40 121 76 125 76 246 165 330 244 33 30 63 55 67 56 4 0 5 -21
2 -47z m-3407 -574 c118 -10 286 -8 404 7 l46 6 8 -38 c9 -54 73 -248 101
-313 13 -29 24 -61 24 -71 0 -23 -147 -164 -241 -229 -145 -103 -356 -193
-514 -220 -38 -7 -80 -14 -92 -17 -19 -4 -22 2 -34 69 -18 99 -16 322 4 432
30 166 122 403 151 392 8 -3 73 -11 143 -18z m1878 -14 c77 0 182 4 233 8 l93
9 33 -74 c44 -96 83 -219 101 -325 18 -101 20 -311 4 -418 -11 -74 -12 -75
-41 -75 -49 0 -222 38 -300 66 -109 39 -260 120 -352 187 -86 64 -202 170
-218 200 -7 13 1 43 31 115 37 91 65 178 91 280 l11 43 87 -8 c48 -4 150 -8
227 -8z m-820 -1044 c142 -129 308 -248 486 -347 l104 -59 -75 -17 c-365 -85
-722 -88 -1102 -9 -32 7 -58 15 -58 19 0 4 28 22 61 40 96 53 295 208 409 319
58 56 109 102 114 103 4 0 32 -22 61 -49z m-2583 -258 c31 -38 84 -95 117
-128 l61 -59 0 -546 0 -545 -125 0 -125 0 0 673 c0 369 4 672 8 672 4 0 33
-30 64 -67z m5108 -615 l0 -663 -125 0 -125 0 0 528 0 529 99 106 c55 59 109
119 121 135 12 15 23 27 26 27 2 0 4 -298 4 -662z m-2380 -2103 l0 -1565 -195
0 -195 0 0 1564 0 1563 195 1 195 1 0 -1564z m-2495 1266 c188 -66 320 -229
332 -411 26 -370 -397 -619 -754 -444 -86 42 -176 133 -221 222 -36 75 -37 78
-37 192 0 111 1 118 34 185 63 127 196 234 337 270 80 20 229 13 309 -14z
m4889 13 c298 -77 455 -380 332 -640 -121 -255 -445 -358 -713 -228 -61 29
-152 109 -192 168 -178 260 -26 612 301 700 71 20 197 20 272 0z m-2944 -1228
l0 -475 -187 -163 c-104 -89 -233 -202 -287 -250 -55 -49 -103 -88 -108 -88
-4 0 -8 213 -8 473 l0 472 291 253 c159 138 292 252 295 252 2 0 4 -213 4
-474z m1024 209 l276 -239 0 -473 c0 -260 -4 -473 -8 -473 -5 0 -71 55 -148
123 -77 67 -206 180 -287 250 l-147 128 0 476 c0 467 0 475 19 462 11 -8 143
-122 295 -254z m1906 -790 l0 -740 -125 0 -125 0 0 736 c0 405 2 738 4 740 2
2 59 4 125 4 l121 0 0 -740z m-4930 -3 l0 -737 -125 0 -125 0 0 737 0 737 125
0 125 0 0 -737z m1958 -711 c-24 -20 -149 -128 -278 -241 -129 -113 -243 -211
-253 -219 -16 -13 -17 3 -17 280 l0 294 293 254 292 253 3 -293 2 -292 -42
-36z m1071 349 l271 -234 0 -294 c0 -232 -3 -292 -12 -286 -7 5 -119 101 -248
214 -129 113 -256 223 -282 245 l-48 39 0 294 0 294 24 -19 c13 -10 146 -124
295 -253z m-1027 -662 l3 -163 138 -3 137 -3 0 -202 0 -203 -59 -49 c-91 -78
-659 -572 -730 -637 -35 -32 -68 -58 -72 -58 -5 0 -9 219 -9 488 l0 487 207
180 c114 99 243 212 287 252 45 40 84 72 88 73 4 0 9 -73 10 -162z m919 -14
c103 -88 230 -199 283 -245 l96 -84 0 -487 c0 -269 -3 -488 -6 -488 -8 0 -49
33 -129 104 -38 35 -158 139 -265 232 -108 93 -257 223 -333 289 l-137 120 0
202 0 202 138 3 137 3 3 163 c2 125 5 161 15 155 6 -4 96 -80 198 -169z
m-2868 123 c90 -33 145 -67 202 -126 64 -66 91 -110 117 -195 87 -283 -139
-573 -462 -593 -214 -13 -417 102 -502 284 -44 92 -51 217 -19 321 78 259 396
406 664 309z m4927 4 c139 -47 260 -159 311 -289 32 -81 32 -233 1 -313 -69
-173 -242 -299 -436 -316 -389 -32 -671 331 -516 665 58 125 212 242 355 271
76 15 210 7 285 -18z m-2700 -1637 l0 -747 -57 6 c-228 25 -480 166 -621 349
-84 109 -159 261 -177 359 l-7 36 187 164 c557 488 661 577 668 578 4 1 7
-335 7 -745z m393 544 c128 -112 320 -279 426 -372 l193 -169 -7 -36 c-18 -98
-93 -250 -177 -359 -141 -183 -393 -324 -620 -349 l-58 -6 0 747 c0 410 2 746
5 746 2 0 109 -91 238 -202z"/>
</g>
</svg>
