<?xml version="1.0" encoding="utf-8"?>
<!-- Generator: Adobe Illustrator 18.1.0, SVG Export Plug-In . SVG Version: 6.00 Build 0)  -->
<svg version="1.1" id="Calque_1" xmlns="http://www.w3.org/2000/svg" xmlns:xlink="http://www.w3.org/1999/xlink" x="0px" y="0px"
	 viewBox="0 0 210 145" enable-background="new 0 0 210 145" xml:space="preserve">
<g>
	<g>
		<path fill="#5F5B59" d="M3.6,131.3l-2,1.8l-1.2-1.4l3.2-2.7h2v9.9h-2V131.3z"/>
		<path fill="#5F5B59" d="M14.4,130.8h-3.9l0,1.5c0.2-0.1,0.5-0.1,0.9-0.1c2,0,3.4,1.2,3.4,3.3c0,2.2-1.6,3.5-3.8,3.5
			c-1.7,0-2.9-0.9-3.3-2.5l2.2-0.5c0.1,0.7,0.6,1.2,1.4,1.2c0.9,0,1.5-0.6,1.5-1.5c0-1.3-1.2-1.6-2.3-1.6c-0.7,0-1.4,0.1-2.1,0.4
			l0.1-5.5h6V130.8z"/>
		<path fill="#5F5B59" d="M17.5,132.9h-1.8l1-4h2L17.5,132.9z"/>
		<path fill="#5F5B59" d="M24.4,132.3h1.1v1h0c0.6-0.7,1.4-1.1,2.4-1.1c2.1,0,3.4,1.5,3.4,3.4c0,2-1.4,3.4-3.3,3.4
			c-1.2,0-2.1-0.6-2.5-1.3h0v4.4h-1.1V132.3z M27.8,138c1.4,0,2.3-1.1,2.3-2.4c0-1.4-0.9-2.4-2.3-2.4s-2.3,1.1-2.3,2.4
			C25.5,136.9,26.4,138,27.8,138z"/>
		<path fill="#5F5B59" d="M36.1,132.1c2,0,3.5,1.4,3.5,3.4c0,2-1.5,3.4-3.5,3.4c-2,0-3.5-1.4-3.5-3.4
			C32.6,133.5,34.1,132.1,36.1,132.1z M36.1,138c1.4,0,2.3-1.1,2.3-2.4c0-1.4-0.9-2.4-2.3-2.4s-2.3,1.1-2.3,2.4
			C33.8,136.9,34.7,138,36.1,138z"/>
		<path fill="#5F5B59" d="M47,137.3c0,0.6,0.1,1.1,0.1,1.6h-1c0-0.4,0-0.7,0-1.1h0c-0.3,0.6-1.1,1.2-2.2,1.2c-1.7,0-2.5-1.1-2.5-2.7
			v-4h1.1v3.9c0,1.1,0.5,1.8,1.5,1.8c1.4,0,2-1,2-2.5v-3.2H47V137.3z"/>
		<path fill="#5F5B59" d="M49,133.8c0-0.6-0.1-1.1-0.1-1.6h1c0,0.4,0,0.7,0,1.1h0c0.3-0.6,1.1-1.2,2.2-1.2c0.1,0,0.3,0,0.4,0.1
			l-0.1,1.1c-0.2-0.1-0.4-0.1-0.6-0.1c-1.3,0-1.9,0.9-1.9,2.4v3.2H49V133.8z"/>
		<path fill="#5F5B59" d="M62.5,133.9c-0.5-0.6-1-0.8-1.7-0.8c-1.5,0-2.2,1.1-2.2,2.4s0.9,2.4,2.2,2.4c0.7,0,1.3-0.3,1.7-0.8
			l0.8,0.8c-0.6,0.7-1.5,1.1-2.5,1.1c-2,0-3.4-1.4-3.4-3.4c0-2,1.4-3.4,3.4-3.4c1,0,1.9,0.3,2.5,1L62.5,133.9z"/>
		<path fill="#5F5B59" d="M67.6,132.1c2,0,3.5,1.4,3.5,3.4c0,2-1.5,3.4-3.5,3.4c-2,0-3.5-1.4-3.5-3.4
			C64.1,133.5,65.6,132.1,67.6,132.1z M67.6,138c1.4,0,2.3-1.1,2.3-2.4c0-1.4-0.9-2.4-2.3-2.4s-2.3,1.1-2.3,2.4
			C65.3,136.9,66.2,138,67.6,138z"/>
		<path fill="#5F5B59" d="M72.8,133.8c0-0.6-0.1-1.1-0.1-1.6h1c0,0.4,0,0.7,0,1.1h0c0.3-0.6,1.1-1.2,2.2-1.2c1.4,0,1.9,0.8,2.1,1.2
			c0.5-0.8,1.1-1.2,2.1-1.2c1.9,0,2.5,1.1,2.5,2.7v4h-1.1v-3.9c0-0.9-0.3-1.8-1.6-1.8c-0.9,0-1.7,0.8-1.7,1.9v3.8h-1.1v-3.7
			c0-1.4-0.4-2-1.3-2c-1.4,0-2,1-2,2.5v3.2h-1.1V133.8z"/>
		<path fill="#5F5B59" d="M84.7,132h1.9v0.9h0c0.3-0.5,1.1-1.1,2.1-1.1c2,0,3.3,1.5,3.3,3.5c0,1.9-1.2,3.6-3.1,3.6
			c-0.9,0-1.7-0.2-2.2-0.9h0v3.9h-2.1V132z M88.3,137.2c1.1,0,1.7-0.7,1.7-1.7c0-1-0.6-1.7-1.7-1.7s-1.7,0.7-1.7,1.7
			C86.6,136.5,87.2,137.2,88.3,137.2z"/>
		<path fill="#5F5B59" d="M93.4,132h2.1v1.1h0c0.4-0.8,1-1.3,2-1.3c0.2,0,0.5,0,0.7,0.1v1.9c-0.3-0.1-0.6-0.1-0.9-0.1
			c-1.6,0-1.8,0.9-1.8,2.3v2.8h-2.1V132z"/>
		<path fill="#5F5B59" d="M105.5,137.7c-0.7,0.9-1.8,1.3-2.9,1.3c-2.1,0-3.8-1.4-3.8-3.6c0-2.2,1.7-3.6,3.8-3.6c2,0,3.2,1.4,3.2,3.6
			v0.7H101c0.2,0.8,0.8,1.3,1.6,1.3c0.7,0,1.1-0.4,1.5-0.8L105.5,137.7z M103.7,134.7c0-0.7-0.5-1.3-1.3-1.3c-0.9,0-1.4,0.6-1.5,1.3
			H103.7z"/>
		<path fill="#5F5B59" d="M107.2,132h2v0.9h0c0.3-0.5,1-1.1,2-1.1c2.1,0,2.5,1.4,2.5,3.2v3.8h-2.1v-3.3c0-0.8,0-1.8-1.1-1.8
			c-1.1,0-1.3,0.9-1.3,1.7v3.4h-2.1V132z"/>
		<path fill="#5F5B59" d="M122.4,138.9h-1.9V138h0c-0.3,0.5-1.1,1.1-2.1,1.1c-2,0-3.3-1.5-3.3-3.5c0-1.9,1.2-3.6,3.1-3.6
			c0.9,0,1.7,0.2,2.2,0.9h0v-4.5h2.1V138.9z M118.8,133.7c-1.1,0-1.7,0.7-1.7,1.7c0,1,0.6,1.7,1.7,1.7s1.7-0.7,1.7-1.7
			C120.5,134.4,119.9,133.7,118.8,133.7z"/>
		<path fill="#5F5B59" d="M124.1,132h2.1v1.1h0c0.4-0.8,1-1.3,2-1.3c0.2,0,0.5,0,0.7,0.1v1.9c-0.3-0.1-0.6-0.1-0.9-0.1
			c-1.6,0-1.8,0.9-1.8,2.3v2.8h-2.1V132z"/>
		<path fill="#5F5B59" d="M136.3,137.7c-0.7,0.9-1.8,1.3-2.9,1.3c-2.1,0-3.8-1.4-3.8-3.6c0-2.2,1.7-3.6,3.8-3.6c2,0,3.2,1.4,3.2,3.6
			v0.7h-4.9c0.2,0.8,0.8,1.3,1.6,1.3c0.7,0,1.1-0.4,1.5-0.8L136.3,137.7z M134.5,134.7c0-0.7-0.5-1.3-1.3-1.3
			c-0.9,0-1.4,0.6-1.5,1.3H134.5z"/>
		<path fill="#5F5B59" d="M145.9,134c-0.3-0.4-0.7-0.6-1.2-0.6c-0.4,0-0.8,0.2-0.8,0.6c0,1,3.5,0.2,3.5,2.7c0,1.7-1.7,2.2-3.1,2.2
			c-1,0-2-0.2-2.7-0.9l1.3-1.4c0.4,0.5,0.9,0.7,1.5,0.7c0.5,0,1-0.1,1-0.5c0-1.1-3.5-0.2-3.5-2.8c0-1.6,1.4-2.3,2.9-2.3
			c0.9,0,1.9,0.2,2.5,0.9L145.9,134z"/>
		<path fill="#5F5B59" d="M152.1,131.9c2.1,0,3.8,1.4,3.8,3.6c0,2.2-1.7,3.6-3.8,3.6c-2.1,0-3.8-1.4-3.8-3.6
			C148.3,133.3,149.9,131.9,152.1,131.9z M152.1,137.2c1.1,0,1.7-0.7,1.7-1.7c0-1-0.6-1.7-1.7-1.7s-1.7,0.7-1.7,1.7
			C150.4,136.5,151,137.2,152.1,137.2z"/>
		<path fill="#5F5B59" d="M157.1,132h2v0.9h0c0.3-0.5,1-1.1,2-1.1c2.1,0,2.5,1.4,2.5,3.2v3.8h-2.1v-3.3c0-0.8,0-1.8-1.1-1.8
			c-1.1,0-1.3,0.9-1.3,1.7v3.4h-2.1V132z"/>
		<path fill="#5F5B59" d="M173.9,133.7h-1.8v2.3c0,0.7,0.1,1.3,1,1.3c0.2,0,0.7,0,0.9-0.2v1.8c-0.5,0.2-1,0.2-1.5,0.2
			c-1.4,0-2.5-0.6-2.5-2.1v-3.2h-1.3V132h1.3v-2h2.1v2h1.8V133.7z"/>
		<path fill="#5F5B59" d="M181.5,137.7c-0.7,0.9-1.8,1.3-2.9,1.3c-2.1,0-3.8-1.4-3.8-3.6c0-2.2,1.7-3.6,3.8-3.6c2,0,3.2,1.4,3.2,3.6
			v0.7h-4.9c0.2,0.8,0.8,1.3,1.6,1.3c0.7,0,1.1-0.4,1.5-0.8L181.5,137.7z M179.7,134.7c0-0.7-0.5-1.3-1.3-1.3
			c-0.9,0-1.4,0.6-1.5,1.3H179.7z"/>
		<path fill="#5F5B59" d="M183.1,132h2v0.9h0c0.3-0.5,1-1.1,2-1.1c1,0,1.7,0.4,2.1,1.2c0.5-0.9,1.1-1.2,2.2-1.2c1.8,0,2.4,1.3,2.4,3
			v4h-2.1v-4c0-0.6-0.2-1.2-0.9-1.2c-1,0-1.3,0.7-1.3,1.5v3.6h-2.1v-3.6c0-0.5,0-1.5-0.9-1.5c-1.1,0-1.3,0.9-1.3,1.7v3.4h-2.1V132z"
			/>
		<path fill="#5F5B59" d="M195.5,132h1.9v0.9h0c0.3-0.5,1.1-1.1,2.1-1.1c2,0,3.3,1.5,3.3,3.5c0,1.9-1.2,3.6-3.1,3.6
			c-0.9,0-1.7-0.2-2.2-0.9h0v3.9h-2.1V132z M199.2,137.2c1.1,0,1.7-0.7,1.7-1.7c0-1-0.6-1.7-1.7-1.7s-1.7,0.7-1.7,1.7
			C197.5,136.5,198.1,137.2,199.2,137.2z"/>
		<path fill="#5F5B59" d="M208,134c-0.3-0.4-0.7-0.6-1.2-0.6c-0.4,0-0.8,0.2-0.8,0.6c0,1,3.5,0.2,3.5,2.7c0,1.7-1.7,2.2-3.1,2.2
			c-1,0-2-0.2-2.7-0.9l1.3-1.4c0.4,0.5,0.9,0.7,1.5,0.7c0.5,0,1-0.1,1-0.5c0-1.1-3.5-0.2-3.5-2.8c0-1.6,1.4-2.3,2.9-2.3
			c0.9,0,1.9,0.2,2.5,0.9L208,134z"/>
	</g>
	<g>
		<g>
			<circle fill="#5F5B59" cx="104.7" cy="6.5" r="4.5"/>
			<circle fill="#799352" cx="104.7" cy="51.9" r="4.5"/>
			<circle fill="#636458" cx="93.4" cy="9.5" r="4.5"/>
			<circle fill="#7E9C51" cx="116.1" cy="48.8" r="4.5"/>
			<circle fill="#686E57" cx="85.1" cy="17.8" r="4.5"/>
			<circle fill="#82A550" cx="124.4" cy="40.5" r="4.5"/>
			<circle fill="#6C7755" cx="82" cy="29.2" r="4.5"/>
			<circle fill="#86AE4E" cx="127.4" cy="29.2" r="4.5"/>
			<circle fill="#708054" cx="85.1" cy="40.5" r="4.5"/>
			<circle fill="#8BB84D" cx="124.4" cy="17.8" r="4.5"/>
			<circle fill="#758953" cx="93.4" cy="48.8" r="4.5"/>
			<circle fill="#8EC449" cx="116.1" cy="9.5" r="4.5"/>
		</g>
	</g>
	<g>
		<path fill="#5F5B59" d="M42,68.4h13.8c6.4,0,11.7,5.2,11.7,11.7V87c0,6.6-5.4,11.7-11.7,11.7h-8.7v16h2.2v2.6H42v-2.6h2.2V71H42
			V68.4z M64.7,79.8c0-4.9-4.1-8.8-8.8-8.8h-8.7v25.1h8.7c4.7,0,8.8-3.9,8.8-8.8V79.8z"/>
		<path fill="#5F5B59" d="M88.4,109.3c0,4.7-3.8,8.4-8.5,8.4c-4.7,0-8.5-3.7-8.5-8.4v-19c0-4.6,3.8-8.4,8.5-8.4
			c4.7,0,8.5,3.8,8.5,8.4V109.3z M85.6,90.3c0-3.1-2.6-5.7-5.7-5.7c-3.1,0-5.7,2.5-5.7,5.7v19c0,3.2,2.6,5.7,5.7,5.7
			c3.1,0,5.7-2.5,5.7-5.7V90.3z"/>
		<path fill="#5F5B59" d="M93.1,90.3c0-4.7,3.8-8.4,8.5-8.4c4.7,0,8.2,3.7,8.2,8.4v1.4h-2.7v-1.4c0-3.2-2.3-5.7-5.4-5.7
			c-3.1,0-5.7,2.5-5.7,5.8c0,7.5,14.2,9.6,14.2,18.9c0,4.4-3.8,8.4-8.5,8.4c-4.7,0-8.6-3.7-8.6-8.4v-1.4h2.7v1.4
			c0,3.2,2.8,5.7,5.8,5.7c3.2,0,5.8-2.5,5.8-5.8C107.3,102.3,93.1,99.3,93.1,90.3z"/>
		<path fill="#5F5B59" d="M122.5,117.7c-4.2,0-7.5-3.9-7.5-8.2V68.4h2.8v14h7V85h-7v24.4c0,2.8,2.1,5.4,4.7,5.4V117.7z"/>
		<path fill="#8EC449" d="M126.7,91.2h12.2v2.6h-12.2V91.2z"/>
		<path fill="#8EC449" d="M158.3,93.6c2.2-0.3,8.9-2.8,8.9-11.4v-2.6c0-6.5-4.8-11.2-11.1-11.2h-11.7v48.9h2.9V93.8h8l9.1,23.5h3.1
			L158.3,93.6z M147.2,91.2V71h8.8c4.7,0,8.2,3.5,8.2,8.2v3.8c0,4.9-3.6,8.3-8.2,8.3H147.2z"/>
	</g>
</g>
</svg>
